<?xml version="1.0" encoding="UTF-8"?>
<!DOCTYPE svg PUBLIC "-//W3C//DTD SVG 1.1//EN" "http://www.w3.org/Graphics/SVG/1.1/DTD/svg11.dtd">
<!-- Creator: CorelDRAW 2019 (64-Bit) -->
<svg xmlns="http://www.w3.org/2000/svg" xml:space="preserve" width="84.6666mm" height="12.6998mm" version="1.1" style="shape-rendering:geometricPrecision; text-rendering:geometricPrecision; image-rendering:optimizeQuality; fill-rule:evenodd; clip-rule:evenodd"
viewBox="0 0 8466.66 1269.98"
 xmlns:xlink="http://www.w3.org/1999/xlink"
 xmlns:xodm="http://www.corel.com/coreldraw/odm/2003">
 <defs>
  <style type="text/css">
   <![CDATA[
    .fil1 {fill:#A80031;fill-rule:nonzero}
    .fil0 {fill:white;fill-rule:nonzero}
   ]]>
  </style>
 </defs>
 <g id="Layer_x0020_1">
  <metadata id="CorelCorpID_0Corel-Layer"/>
  <path class="fil0" d="M733.6 1003.08c-20.57,-3.73 -39.11,-11.41 -55.26,-22.37 -21.06,12.93 -45.77,20.46 -72.77,20.46l0 -0.25c-21.36,0.79 -50.64,0.9 -77.68,1 -16.5,0.06 -32.06,0.13 -45.55,0.48l-2.77 0.46c-35.41,0 -68.09,-13.53 -92.77,-36.07 -25,-22.82 -41.59,-54.44 -44.59,-90.34l0.28 -0.02c-1.24,-12.46 -2.43,-24.82 -2.43,-35.06 0,-39.04 15.82,-73.39 41.01,-98.58 1.93,-1.93 3.92,-3.8 5.97,-5.62 0.54,-68.32 0.26,-150.66 0.03,-221.23l-0.19 -71.62 -5.16 -4.9c-25.31,-25.31 -40.81,-60.11 -40.81,-98.69 -0.84,-13.72 -0.85,-26.47 -0.85,-32.98 0,-36.09 13.86,-68.25 37.29,-92.92 22.22,-23.42 52.46,-38.33 86.51,-41.44l5.55 -0.46c38.17,-1.77 90.26,-0.19 120.66,0.74l0.28 0.01 0 -0.37c27.8,0 54.5,9.12 76.4,24.57 20.01,14.11 36.67,34.08 46.63,57.25l0.46 1.85c17.35,42.22 34.63,88.77 51.8,136.75 17.45,-49.1 34.47,-95.86 50.41,-136.21l0.21 0.09c9.74,-24.89 26.02,-45.54 46.48,-60.36 22.78,-16.48 49.91,-25.63 78.57,-25.63l0.46 0.47 12.81 0.08c25.16,0.17 80.07,0.56 96.27,-0.08l4.62 -0.47c32.82,0 61.88,8.6 88.46,30.06 32.55,26.22 49.36,60.11 49.36,105.22 0,15.37 -0.06,14.27 -0.04,14.94 0.43,15.07 0.89,11.59 0.89,21.42 0,36.11 -14.05,69.53 -38.13,94.72 -4.42,4.62 -9.14,8.94 -14.15,12.92l0.82 96.82 25.5 -78.79 6.92 -21.39 0.92 -3.24c10.75,-30.45 31.11,-56.73 57.3,-75.07 25.24,-17.66 55.57,-27.82 87.96,-27.43l0 -0.24 11.84 0 6.47 0.46c31.8,1.75 61.94,13.39 86.37,32.2 8.69,6.68 16.68,14.3 23.8,22.75l0.49 -20.99 -0.41 0c0,-37.33 15.2,-71.18 39.65,-95.62l0.23 0.23c24.66,-24.59 58.46,-39.89 95.4,-39.89l0 0.35c31.76,-1.02 96.58,-2.53 155.75,-2.93 43.39,-0.29 82.12,-0.03 101.2,1.36l-0.02 0.15c43.55,2.68 85.56,17.96 122.12,43.09 1.4,-3.43 2.86,-6.86 4.37,-10.26 37.81,-85.18 102.79,-152.26 215.12,-174.16l-0.02 -0.09c58.48,-11.56 113.55,-8.73 165.7,8.82 51.97,17.48 97.84,48.78 138.07,94.21 18.6,20.94 30.75,44.77 36.45,70.39 40.62,-26.85 89.48,-44.14 147.66,-48.46l8.32 -0.46c93.68,0 163.84,32.13 215.61,83.56 19.08,-10.97 41.18,-17.37 64.5,-17.37l79.49 0 0 0.36c28.02,-0.43 53.37,7.63 75.18,21.37 9.76,6.15 18.7,13.5 26.67,21.64l1.53 -1.64 0.23 0.22c24.31,-25.56 58.06,-41.95 95.97,-41.95l1.39 0.46 73.3 1.03c-2.04,-12.5 -2.41,-25.26 -1.12,-38.16 3.44,-34.48 18.17,-65.72 43.45,-90.99 4.44,-4.45 11.21,-9.99 20.21,-16.55l2.3 -1.85 3.45 -2.49c32.28,-21.5 68.48,-30.83 106.43,-25.51 40.08,5.58 75.33,26 102.19,63.6 0.93,1.88 1.4,2.8 2.89,4.3 3.36,5 6.46,9.65 9.34,14 14.95,-9.17 31.35,-17.05 49.21,-23.84l3.23 -0.92c0.56,-0.18 192.98,-69.37 355.16,80.32l3.69 3.24c11.31,11.31 21.13,25.39 28.97,41.73l0.45 0c6.99,14.64 11.7,30.96 13.64,48.46l0.46 9.25 1.69 52.43 -0.04 11.63c-2,36.15 -17.73,69.92 -42.49,94.6 -2.48,2.47 -5.05,4.86 -7.7,7.15 36.93,36.93 64.25,89.5 70.45,169.84l0.08 -0.01c5.58,67.69 -1.38,117.2 -22.45,161.1 -23.22,48.4 -56.78,78.23 -103.77,106.7l-1.85 1.38c-17.01,9.93 -34.81,18.09 -53.17,24.3l-0.46 0c-19.01,6.42 -38.33,10.8 -57.72,12.95l-0.03 -0.22c-41.27,5.16 -103.2,7.71 -165.19,-7.85 -50.74,-12.73 -101.45,-36.73 -143.68,-78.96 -10.86,-10.86 -20.36,-24.43 -27.96,-39.64 -7.89,-15.73 -13.08,-32.19 -15.09,-48.31l-0.13 -1.13 -2.02 -59.41 -0.47 -3.69c0,-39.42 15.69,-74.96 41.49,-101.56 10.27,-10.6 22.13,-19.62 35.21,-26.71 -36.88,-40.61 -63.54,-89.5 -70.35,-146.75l-1.71 -0.67c-4.27,27.35 -17.12,52.14 -35.31,71.44l0.25 0.24 -0.6 0.63 0 222.37 -0.45 0 2.46 201.86 0.59 7.46 -0.46 0c-0.07,37.45 -15.24,70.01 -39.23,93.55 -21.15,20.76 -49.82,34.53 -80.36,37.69 -6.53,0.71 -11.08,1.06 -13.6,1.06l-35.52 0c-24.6,0 -49.36,-6.54 -71.94,-19.54l-0.47 0c-11.77,-6.81 -22.57,-15.31 -32.05,-25.52 -1.87,2.12 -3.82,4.2 -5.83,6.22l0 0.46c-24.62,24.62 -57.91,39.22 -95.21,39.22l-0.46 -0.46 -108.63 -0.84 0 0.46c-36.82,0 -69.93,-14.59 -94.75,-39.23l-0.46 -0.46c-16.21,-16.33 -28.07,-36.25 -34.29,-58.45 -43.98,28.74 -96.56,44.63 -158.22,44.63 -115.68,0 -195.81,-52.84 -249.1,-134.88 -7.33,-11.28 -14.02,-23.09 -20.12,-35.32 -5.1,3.11 -10.37,6.05 -15.81,8.84 -47.38,24.26 -97.09,30.32 -158.92,30.32l-15.31 -0.68c-41.18,-1.8 -77.21,-10.08 -108.7,-23.58 -0.07,2.43 -0.2,4.85 -0.41,7.28l-0.17 -0.01c-1.2,18.02 -3.31,27.69 -5.39,37.28 -0.79,3.67 -0.18,-1.22 -0.9,3.13 -4.37,28.06 -17.32,53.94 -36.4,73.99 -19.41,20.38 -45.7,35.31 -76.21,40.86l-7.86 1.39c-28.95,3.21 -59.64,4.69 -89.34,2 -38.76,-3.59 -74.64,-14.62 -104.04,-36.9 -19.67,16.18 -44.27,26.98 -71.89,29.74 -6.82,0.67 -11.2,1.01 -13.22,1.01l0 -0.4 -38.7 0.98c-5.51,29.04 -20.54,54.52 -41.93,73.75 -24.05,21.67 -56.33,34.98 -91.03,34.98l-137 0c-29.88,0 -58.44,-10.05 -81.4,-27.49 -23.06,17.18 -51.76,27.49 -82.66,27.49l-138.7 0c-39.1,0 -74.69,-16.04 -100.56,-41.87l-0.46 -0.46c-25.83,-25.87 -41.86,-61.45 -41.86,-100.56l0.46 -5.09 0.84 -18.6 0 -3.23c0.19,-2.6 0.44,-5.17 0.76,-7.74l-36.18 0 0 -0.11c-26.73,0.38 -51.01,-6.76 -71.78,-19.31l-0.49 0.31c-20.62,13.19 -43.66,20.95 -68.1,22.29l-11.72 0.8c-10.55,0.6 -21.19,0.59 -31.38,-0.68l-6.48 -1.39zm2486.91 -16.93l0.86 9.34 -0.46 -9.34 -0.4 0zm-839.23 -498.84l-0.78 0.07 -16.07 0 0 -0.27c-37.27,0.47 -71.66,-13.06 -98.21,-36.01l-3.6 -3.22c0.29,5.13 0.43,10.29 0.31,15.34 -0.36,16.58 -0.73,32.64 -1.24,42.41 0.09,10.72 0.07,21.8 0.05,32.87l-0.03 7.88 0.78 -0.78c26.06,-25.47 61.47,-41.28 100.51,-41.28l3.23 0.47 10.8 0.3c1.31,-5.95 2.73,-11.89 4.25,-17.78zm-1878.01 -241.83l-1.12 -0.02 1.1 0.11 0.02 -0.09zm-116.43 130.22l0.2 -0.7 0 -3.54 -0.2 4.24z"/>
  <path class="fil1" d="M731.84 876.26c3.38,8.46 10.15,14.38 19.45,16.07 6.77,0.84 14.38,0 21.14,-0.85 9.31,0 16.92,-5.07 21.14,-13.53 3.39,-6.76 104.87,-295.14 137,-385.62 1.69,-5.92 7.61,-5.08 7.61,0.84 0,107.4 -0.84,220.72 0,314.59 0,10.15 -9.3,18.61 -19.45,17.76l-1.69 0c-10.15,-0.85 -18.6,7.61 -18.6,17.76 0,2.54 0,14.38 0.84,25.37 0.85,10.99 9.31,20.3 21.15,19.45l120.08 0c12.69,0 22.83,-10.15 23.68,-22.83l0 -22.84c0,-9.3 -6.77,-16.91 -16.07,-17.76 -3.38,0 -5.92,0 -9.3,-0.84 -8.46,0 -16.07,-7.61 -16.07,-16.91 -0.84,-15.23 0,-36.37 0,-41.44 -1.69,-35.52 -0.84,-67.66 -0.84,-103.17 0,-86.26 -0.85,-180.13 -1.7,-277.38 -0.84,-9.31 7.62,-16.92 16.92,-16.07 5.07,0 10.99,-0.85 16.91,-0.85 10.99,-0.84 18.61,-9.3 18.61,-19.45 0,-7.61 -0.85,-28.75 -0.85,-36.36 0,-12.69 -6.77,-16.91 -19.45,-16.91 -21.14,0.84 -105.71,0 -114.17,0 -6.76,0 -12.68,4.22 -15.22,10.99 -52.43,132.77 -98.94,281.61 -153.06,419.45 -2.54,6.77 -11,6.77 -14.38,0 0,0 0,-0.84 -0.85,-1.69 -49.04,-121.78 -102.32,-293.45 -153.06,-416.92 -2.54,-5.92 -8.46,-10.14 -14.38,-10.14 -27.91,-0.85 -79.49,-2.54 -115.86,-0.85 -9.3,0.85 -16.06,7.61 -16.06,16.91 0,7.62 0,24.53 0.84,32.99 0,11.83 9.3,21.14 21.14,21.14 3.39,0 5.92,0.84 8.46,0.84 9.3,0 16.91,7.61 16.07,16.92 -0.85,74.42 1.69,301.9 -0.85,422.83 0,9.3 -7.61,16.91 -16.91,16.91l-6.77 0c-11.84,0.85 -21.98,10.15 -21.98,21.99 0,8.46 0.84,16.92 1.69,25.37 0.84,10.15 9.3,17.76 19.45,17.76 32.13,-0.84 88.79,0 126,-1.69 12.69,0 21.99,-10.15 22.84,-21.99 0.84,-16.07 1.69,-33.82 -5.92,-38.05 -4.23,-2.54 -10.15,-4.23 -17.76,-4.23 -9.3,-0.85 -17.76,-8.46 -17.76,-18.61 2.54,-92.17 -2.54,-221.56 0,-313.74 0,-4.23 5.07,-5.07 5.92,-1.69l142.07 386.47z"/>
  <path class="fil1" d="M1538.04 1000.53l-5.08 0c-7.61,-0.84 -13.53,-5.07 -16.07,-11.84 -23.68,-65.11 -115.01,-367.86 -153.91,-498.1 -4.23,-14.37 -17.76,-24.52 -32.98,-25.37l-11.84 0c-15.22,-0.84 -28.75,9.31 -33.83,23.68 -55.81,172.52 -142.07,439.75 -165.75,498.95 -2.53,6.76 -8.45,11.84 -16.06,11.84l-5.92 0c-12.69,0.84 -21.99,10.99 -22.84,22.83l-0.84 18.61c0,13.53 10.99,24.52 24.52,24.52l138.69 0c10.99,0 20.3,-9.3 20.3,-20.3l0.84 -23.67c0,-11 -8.45,-20.3 -19.45,-20.3l-14.37 -0.85c-5.08,0 -12.69,-5.92 -11,-10.99 3.38,-10.15 9.3,-23.68 11.84,-32.98 7.61,-28.75 13.53,-49.9 22.83,-77.8 1.7,-6.77 8.46,-11 15.23,-11 29.6,0 74.42,1.69 106.55,0.85 10.15,-0.85 16.91,2.54 18.61,9.3 11.84,34.67 22.83,89.64 31.29,112.48 1.69,5.07 -1.7,9.3 -6.77,10.14l-11.84 0c-9.3,0 -16.07,7.61 -16.07,16.07l0 32.98c0,9.3 7.61,16.07 16.07,16.07l137 0c9.3,0 16.91,-6.77 16.91,-15.22l0 -32.98c0,-9.31 -6.76,-16.92 -16.06,-16.92zm-180.13 -197.88c-20.3,0 -55.82,-0.85 -76.11,-0.85 -6.77,0 -11.84,-6.76 -10.15,-13.53 10.99,-45.67 38.9,-141.23 43.97,-158.14 0,-1.69 1.7,-3.38 3.39,-3.38l5.92 0c1.69,0 3.38,1.69 3.38,2.53 3.38,15.23 30.44,112.48 40.59,159.84 1.69,6.76 -3.38,13.53 -10.99,13.53z"/>
  <path class="fil1" d="M1586.23 893.9c-10.14,0 -16.91,6.77 -16.91,14.38l-1.69 32.84c0,8.45 6.76,16.91 15.22,16.91 25.37,0.85 25.37,0.85 126.01,-1.69 9.3,0 16.06,-7.61 15.22,-16.07l-1.69 -31.99c0,-7.61 -6.77,-14.38 -14.38,-14.38 -13.53,-0.84 -20.3,-7.61 -20.3,-15.93l0 -149.26c0,-6.62 5.92,-12.54 12.69,-12.54 16.07,0 44.82,-0.85 60.89,0.85 38.05,0 78.65,43.83 80.34,98.52 0,59.9 2.53,112.89 20.29,131.5 20.3,19.45 66.81,19.45 112.48,14.37 9.3,-1.69 16.06,-9.3 16.91,-17.76 1.69,-10.14 4.23,-16.91 5.07,-31.14 0.85,-10.15 -5.07,-19.45 -14.37,-21.99 -9.3,-3.38 -18.61,-6.77 -35.52,-17.62 -26.22,-16.91 4.23,-153.35 -75.26,-180.41 -2.54,-0.84 -2.54,-5.07 0,-5.92 76.95,-23.68 98.09,-70.89 94.71,-161.1 -1.69,-90.91 -66.81,-159.41 -135.31,-162.79 -46.51,-3.38 -197.88,0 -248.62,1.69 -9.31,0 -16.92,7.61 -16.92,16.91l-0.84 36.37c0,9.3 7.61,17.76 17.76,17.76l4.22 0c9.31,0 17.76,7.47 17.76,17.62 -0.84,60.74 -0.84,263.14 -1.69,367.58 0,10.99 -0.84,40.45 -1.69,58.21 0,8.32 -6.76,14.24 -14.38,15.08zm191.13 -253.84c-19.45,0 -53.28,0.85 -74.42,1.69 -10.15,0 -18.61,-7.47 -18.61,-17.62l0.85 -170.26c0,-9.3 8.45,-16.77 17.76,-16.77 27.9,-0.85 78.64,0 89.64,1.69 63.42,12.54 80.34,29.46 82.87,94.29 3.39,80.06 -55.81,106.98 -98.09,106.98z"/>
  <path class="fil1" d="M2382.45 628.87c-7.61,0 -14.37,0 -21.14,-0.85 -15.22,-0.84 -27.91,11.84 -27.91,27.06 0,9.31 0.85,15.23 0.85,32.14 -10.15,30.44 -28.75,70.19 -76.96,70.19 -131.07,0 -115.01,-134.46 -116.7,-252.01 5.08,-85.41 -10.99,-213.95 101.48,-227.48 37.21,-0.85 60.89,11.83 75.27,27.9 7.61,7.61 10.99,18.61 11.84,29.6 0,4.23 0,7.61 0.84,11.84 1.69,16.07 15.22,27.91 31.29,27.06l16.07 0c16.91,-0.84 29.6,-14.37 29.6,-31.29 0,-6.76 -0.85,-14.37 -0.85,-31.29 0,-10.15 -3.38,-19.45 -10.15,-27.06 -52.43,-59.2 -115.85,-80.34 -192.81,-65.12 -135.31,26.22 -157.29,163.22 -162.37,278.23 -5.92,135.31 23.68,323.05 197.89,323.05 89.64,0 136.15,-13.54 164.9,-94.72 2.54,-5.92 4.23,-12.68 4.23,-18.6 0,-19.45 0.85,-32.99 0.85,-52.44 -0.85,-14.37 -11.84,-26.21 -26.22,-26.21z"/>
  <path class="fil1" d="M2682.64 951.87c140.38,0 202.96,-139.53 202.96,-317.13 0,-134.46 -43.97,-288.37 -208.88,-288.37 -147.99,10.99 -197.88,156.45 -197.88,291.76 0,157.29 48.2,313.74 203.8,313.74zm-5.92 -539.54c98.95,0 124.32,89.64 124.32,223.26 0,152.22 -28.76,246.94 -116.71,246.94 -80.33,0 -121.77,-102.33 -121.77,-248.63 0,-121.78 34.67,-221.57 114.16,-221.57z"/>
  <path class="fil1" d="M3252.81 803.25c0,4.23 -5.08,5.08 -6.77,1.7l-186.89 -378.02c-5.08,-8.46 -13.53,-15.22 -22.84,-14.37l-79.49 0c-6.76,0 -12.68,5.91 -12.68,12.68l0 46.51c0,6.77 5.92,11.84 12.68,11.84l15.22 0c6.77,0 12.69,5.08 12.69,11.84l0.84 432.14c0,8.46 -7.61,16.07 -16.06,16.07 -9.31,0 -16.07,7.61 -16.07,16.06l0.84 29.6c0,9.3 6.77,16.07 16.07,16.07l109.09 0.85c9.31,0 16.07,-6.77 16.07,-16.07l0.85 -30.45c0,-9.3 -6.77,-16.91 -16.07,-16.91l-3.38 0c-8.46,0 -16.07,-7.61 -16.07,-16.07l-0.85 -324.73c0,-2.54 3.39,-3.39 5.08,-0.85l197.88 391.54c4.23,8.46 12.69,12.69 21.99,12.69l35.52 0c8.46,0 16.07,-6.77 15.22,-15.22l-2.53 -208.04 0 -284.14c0,-8.46 5.91,-14.38 14.37,-15.22l8.46 0c7.61,0 14.37,-6.77 14.37,-15.23l0 -38.9c0,-7.61 -6.76,-14.37 -14.37,-14.37l-120.09 -1.69c-8.45,0 -15.22,7.61 -15.22,16.06l0 39.75c0,8.46 6.77,15.22 15.22,15.22l4.23 0c8.46,0 15.22,6.77 15.22,15.22l-2.53 304.44z"/>
  <path class="fil1" d="M3958.63 705.63c-7.61,-101.48 -83.72,-130.24 -147.15,-154.76 -14.37,-3.38 -89.64,-34.67 -115.85,-87.95 -32.99,-68.5 21.14,-104.86 64.27,-104.86 26.21,0 54.96,5.07 82.03,24.52 5.07,3.38 8.45,9.3 8.45,16.07l1.69 18.6c0,14.38 11.84,25.37 25.37,25.37l33.83 0c15.22,0.85 27.06,-11.84 27.06,-26.21l-1.69 -52.43c-0.84,-7.61 -4.23,-14.38 -9.3,-19.45 -109.94,-101.48 -236.79,-55.82 -236.79,-55.82 -66.81,25.37 -93.02,76.11 -84.57,181.82 6.77,78.65 92.18,137 161.53,165.75 54.12,22.84 99.79,41.44 101.48,87.95 2.53,74.42 -45.67,96.41 -88.8,96.41 -24.52,0 -54.97,-5.08 -79.49,-22.83 -7.61,-5.92 -11.84,-14.38 -12.69,-22.84l0 -14.37c-0.84,-14.38 -13.53,-26.22 -27.9,-25.37l-32.14 0c-15.22,0.84 -27.06,12.68 -27.06,27.9l1.69 49.9c0.85,6.76 4.23,13.53 9.3,18.6 61.74,61.74 159.84,60.05 212.27,53.28 22.83,-2.54 44.82,-10.15 65.11,-21.99 55.82,-33.82 76.96,-65.11 69.35,-157.29z"/>
  <path class="fil1" d="M3549.03 345.87c-18.6,-31.29 -25.37,-45.66 -56.66,-92.17 -13.53,-20.3 -32.13,-21.15 -49.89,-8.46 -18.61,13.53 -21.14,32.98 -5.08,49.05 39.75,38.9 46.52,44.82 82.88,76.95 8.46,7.61 21.14,11.84 30.44,5.08 10.15,-8.46 1.69,-25.37 -1.69,-30.45z"/>
  <path class="fil0" d="M4706.21 742.97l0.46 -0.47c4.37,-4.33 9.03,-8.4 13.95,-12.16l2.31 -282.8 -4.92 -4.68c-22.54,-22.54 -37.5,-52.87 -40.23,-88.21l0 -6.01 -0.69 -27 -0.15 0.02c-0.22,-2.81 -0.35,-5.61 -0.4,-8.39l-0.07 -0.38c-0.46,-35.49 12.77,-68.06 34.92,-92.97 23.03,-25.91 56.04,-43.21 93.25,-46.08l8.78 -0.46 0.02 0.42 34.27 -0.76c0.35,-0.06 123.02,-4.6 181.15,4.51l0.04 -0.24c47.29,7.22 112.65,28.72 165.35,81.13 10.99,10.92 21.32,23.04 30.69,36.44 3.27,-0.88 6.59,-1.63 9.95,-2.26l-0.05 -0.25c13.56,-2.71 17.25,-2.57 33.64,-1.91 9.39,0.37 37.03,1.47 131.09,0.9l0.46 -0.46 3.35 0.04c2.17,-34.31 17.8,-65.78 41.8,-88.61 24.08,-22.91 57.07,-37.59 93.21,-37.59l345.05 0 8.78 0.47c34.53,2.65 65.35,17.56 88.39,40.55l0.47 0.47c22.99,23.04 37.9,53.86 40.55,88.39l0.47 8.78 0 26.22 -0.31 0 0.02 1.01 197.84 0c-0.57,-3.4 -1.02,-6.85 -1.34,-10.34 -0.3,-3.29 -0.94,-7.58 -0.94,-10.78 0,-17.87 0.42,-2.06 0.28,-7.74 -0.2,-8.52 -0.43,-17.37 -0.27,-25.24 -0.01,-38.55 16.52,-72.87 42.25,-97.37 24.54,-23.34 58.32,-37.91 93.86,-37.91l0 0.46c40.03,-0.41 89.13,-0.21 139.51,0 50.68,0.21 102.74,0.43 147.94,0l0.93 -0.46c40.58,0 75.24,17.03 100.13,44.16l0 0.46c19.64,21.46 32.37,48.75 35.86,77.83 32.51,-1.01 95.69,-2.47 153.48,-2.86 43.38,-0.29 82.12,-0.03 101.19,1.36l-0.02 0.15c45.96,2.83 90.2,19.69 128.12,47.34 5.61,-18.3 14.97,-35.03 27.11,-49.18 19.65,-22.91 46.71,-39.08 77.47,-44.83l-0.04 -0.25c13.55,-2.71 17.24,-2.56 33.64,-1.9 9.39,0.37 37.02,1.47 131.08,0.9l0.46 -0.47c36.94,0 70.74,15.3 95.4,39.89l0.23 -0.24c24.45,24.45 39.65,58.3 39.65,95.63l0 34.67c0,9.25 -0.97,18.35 -2.83,27.21 19.5,-59.88 39.14,-120.6 56.4,-173.95l6.92 -21.39 0.92 -3.24c10.75,-30.46 31.12,-56.74 57.3,-75.07 25.25,-17.66 55.58,-27.82 87.95,-27.43l0 -0.24 11.85 0 6.47 0.46c31.81,1.75 61.95,13.4 86.37,32.2 24.8,19.08 43.9,45.74 53.29,77.36l0.13 -0.04c25.45,85.25 69.43,231.49 100.17,331.01 14.16,45.81 27.1,87.1 37,117.68 7.79,5.38 15,11.58 21.55,18.49 23.54,24.72 37.48,57.9 37.48,93.43l0 32.98c0,39.32 -16.94,74.06 -44.24,98.61 -24.03,21.66 -56.3,34.98 -91.03,34.98l-137 0c-29.88,0 -58.44,-10.05 -81.4,-27.49 -23.06,17.18 -51.76,27.49 -82.66,27.49l-137.3 0c-7.35,23.16 -20.68,43.44 -38.24,59.31 -24.64,22.3 -56.68,35.55 -91.14,35.55l-1.39 -0.46 -118.7 -1.67 0 0.44c-8.67,0 -17.1,-0.8 -25.27,-2.33 -3.99,5.74 -8.42,11.17 -13.24,16.23 -19.4,20.38 -45.67,35.31 -76.21,40.86l-7.86 1.39c-28.95,3.21 -59.63,4.69 -89.33,2 -38.75,-3.59 -74.63,-14.62 -104.05,-36.9 -19.64,16.17 -44.25,26.98 -71.89,29.74 -6.76,0.67 -11.19,1.01 -13.22,1.01l0 -0.4c-96.84,2.44 -101.57,2.55 -126.01,1.75l0 0.34c-39.94,0 -74.38,-17.65 -98.41,-44.34 -19.12,-21.23 -31.83,-49.5 -34.6,-78.89 -2.48,0.14 -4.96,0.21 -7.46,0.21l-263.94 0 -1.19 54.94 0.41 0c0,37.48 -16.17,72.19 -42.05,96.85 -24.13,22.91 -57.1,37.59 -93.22,37.59l-334.89 0c-37.91,0 -73.38,-15.35 -99.82,-40.72 -25.25,-24.4 -42.06,-58.25 -44.3,-96.54l0 -3.24 -0.79 -25.39 -210.15 0c-5.85,0 -11.64,-0.36 -17.35,-1.07l-0.2 1.74c-3.21,35.28 -19.51,66.05 -44.05,88.24 -24.65,22.3 -56.68,35.56 -91.15,35.56l-1.38 -0.47 -118.7 -1.67 0 0.44c-36.1,0 -68.25,-13.85 -92.92,-37.28 -23.38,-22.24 -38.32,-52.48 -41.43,-86.51l-0.46 -4.16 -1.69 -29.6 -0.47 -6.48 0.35 -0.01c-0.51,-32.91 10.85,-63.02 30.46,-86.74l-0.31 -156.11c-26.33,20.6 -56.8,36.47 -91.57,48.99 16.81,23.16 26.64,51.53 26.64,81.44l-0.46 3.69 -0.72 21.67 0.34 0c0,38.28 -16.16,73.37 -42.69,98.73 -24.6,23.52 -58.02,38.24 -95.13,38.24l-159.83 0c-38.51,0 -72.49,-15.57 -97.61,-40.5l-0.46 -0.47c-25.52,-25.71 -40.59,-60.53 -40.59,-97.69l0.46 -3.7 0.85 -25.37 0.46 -6.94c2.95,-32.31 17.43,-62.74 39.81,-85.29zm2847.71 -304.58c-6.34,14.11 -15.07,27.09 -25.78,38.34l-4.8 4.8 0 50.06c9.77,-29.61 20.09,-61.09 30.58,-93.2zm-2033.87 84.23c-5.9,11.3 -13.4,21.76 -22.24,31.04l-4.79 4.8 0 70.69 63.58 -103.37 -28.68 -2.15 0.01 -0.22 -3.39 -0.31c-1.51,-0.14 -3,-0.3 -4.49,-0.48z"/>
  <path class="fil1" d="M4802.46 820.72c-10.15,0.84 -17.76,9.3 -18.61,18.6l-0.84 25.37c0,11 8.45,20.3 20.29,20.3l159.83 0c11,0 19.45,-8.46 19.45,-18.6l0.85 -25.37c0,-11 -8.46,-20.3 -19.45,-20.3l-20.3 -0.85c-10.99,0 -19.45,-9.3 -19.45,-19.45 0.85,-30.44 0.85,-87.95 0.85,-121.77 0,-7.61 5.92,-14.38 13.53,-14.38 26.22,-2.54 57.51,-3.38 82.03,-10.99 94.72,-29.6 139.54,-84.57 135.31,-214.8 -13.53,-104.02 -94.72,-136.16 -144.61,-143.77 -46.51,-7.61 -158.99,-3.38 -158.99,-3.38l-38.9 0.85c-10.99,0.84 -19.45,10.14 -18.6,21.14l0.84 32.98c0.85,10.99 9.3,18.6 19.45,19.45l6.77 0c10.15,0 19.45,8.46 19.45,19.45l-3.38 414.38c0,10.15 -8.46,18.6 -18.61,19.45l-16.91 1.69zm123.47 -438.06c0,-10.15 6.76,-18.6 16.06,-20.29 49.9,-8.46 98.1,5.92 110.79,45.66 16.06,33.83 9.3,61.74 10.14,91.33 -0.84,59.2 -71.88,93.03 -120.08,95.57 -9.3,0 -16.07,-6.77 -16.07,-16.07 -0.84,-66.81 -0.84,-130.24 -0.84,-196.2z"/>
  <path class="fil1" d="M5396.66 937.38c-13.53,-0.84 -21.14,-8.45 -21.14,-17.75l-0.85 -169.14 0 -254.55c0,-8.45 6.77,-16.06 15.22,-16.91l11 -0.84c9.3,-0.85 16.06,-8.46 16.06,-16.92l0 -34.67c0,-9.3 -7.61,-16.91 -16.91,-16.91 -137.84,0.84 -137.84,-1.69 -142.07,-0.85 -8.46,0.85 -15.22,8.46 -15.22,17.76l0.84 34.67c0.85,9.3 7.61,16.07 16.07,16.07l8.46 0.85c9.3,0 16.06,7.61 16.06,16.91l0.85 422.83c0,9.31 -6.77,16.92 -15.22,17.76 -9.3,0.85 -16.07,8.46 -15.22,17.76l1.69 29.6c0.84,9.3 7.61,16.07 16.91,16.07l120.09 1.69c9.3,0 16.91,-6.77 17.76,-16.07l1.69 -29.6c0.84,-9.3 -6.77,-16.91 -16.07,-17.76z"/>
  <path class="fil1" d="M5639.04 796.01c-4.23,-0.84 -7.62,-5.92 -5.08,-10.15l264.7 -435.52c3.38,-5.92 5.92,-13.53 5.07,-20.29l0 -26.22c-0.85,-10.99 -9.3,-19.45 -20.3,-20.29l-345.03 0c-9.3,0 -16.91,7.61 -16.91,16.06l-0.85 89.64c-0.84,9.31 6.77,16.92 16.07,16.92l33.83 2.53c9.3,0 16.91,-7.61 17.76,-16.91l0.84 -19.45c0.85,-9.3 7.61,-16.07 16.91,-16.07l180.98 -0.84c5.92,0 9.3,5.92 6.76,10.99l-268.92 437.21c-4.23,6.77 -5.92,13.53 -5.92,20.3l0.85 27.06c0.84,14.38 12.68,25.37 26.21,25.37l334.89 0c9.3,0 16.91,-7.61 16.91,-16.07l1.69 -77.8c0,-9.3 -6.76,-16.91 -16.07,-16.91l-35.51 -2.54c-9.31,-0.85 -17.76,6.77 -17.76,16.07l0 1.69c-0.85,9.3 -8.46,16.07 -16.92,16.07l-174.2 -0.85z"/>
  <path class="fil1" d="M5994.1 961.9c-4.23,-0.84 -7.62,-5.92 -5.08,-10.15l264.7 -435.52c3.38,-5.92 5.92,-13.53 5.07,-20.29l0 -26.22c-0.85,-10.99 -9.3,-19.45 -20.3,-20.29l-345.03 0c-9.3,0 -16.91,7.61 -16.91,16.06l-0.85 89.64c-0.84,9.31 6.77,16.92 16.07,16.92l33.83 2.53c9.3,0 16.91,-7.61 17.76,-16.91l0.84 -19.45c0.85,-9.3 7.61,-16.07 16.91,-16.07l180.98 -0.84c5.92,0 9.3,5.92 6.76,10.99l-268.92 437.21c-4.23,6.77 -5.92,13.53 -5.92,20.3l0.85 27.06c0.84,14.38 12.68,25.37 26.21,25.37l334.89 0c9.3,0 16.91,-7.61 16.91,-16.07l1.69 -77.8c0,-9.3 -6.76,-16.91 -16.07,-16.91l-35.51 -2.54c-9.31,-0.85 -17.76,6.77 -17.76,16.07l0 1.69c-0.85,9.3 -8.46,16.07 -16.92,16.07l-174.2 -0.85z"/>
  <path class="fil1" d="M6637.65 374.21c9.3,0 16.91,-6.76 18.6,-16.07 2.54,-21.14 3.38,-49.89 4.23,-77.8 0,-10.99 -7.61,-20.29 -18.61,-20.29 -90.48,0.84 -208.03,-0.85 -288.37,0 -9.3,0 -17.76,7.61 -17.76,16.91 -0.84,10.15 0,22.83 0,32.98 0.85,10.15 9.3,17.76 18.61,16.91 10.99,-1.69 21.14,7.61 21.14,18.61 0,138.69 -0.85,284.99 -1.69,419.45 0,10.99 -5.92,21.14 -16.92,20.3 -0.84,0 -9.3,0.84 -10.14,0.84 -11.84,0 -15.23,5.08 -15.23,16.92 0,9.3 0,22.83 0.85,32.13 0,10.99 5.07,17.76 15.22,17.76 6.77,0 17.76,-0.85 22.83,0 73.58,0 191.13,0 265.54,0 9.31,0 16.92,-6.77 17.76,-16.07 1.7,-30.44 2.54,-52.43 2.54,-71.88 0,-10.15 -8.46,-18.6 -18.6,-18.6 -10.15,-0.85 -19.45,-0.85 -30.45,-0.85 -10.15,0 -15.22,10.15 -15.22,17.76 0,10.99 1.69,21.99 -3.38,21.99 -20.3,0.84 -76.11,0.84 -109.09,0 -10.15,-0.85 -17.76,-9.31 -17.76,-19.45 0,-65.97 -0.85,-115.02 -0.85,-180.13 0,-10.15 8.46,-18.61 18.61,-18.61 28.75,0 86.25,1.69 118.39,2.54 12.68,0.85 23.68,-9.3 25.37,-22.83 0.85,-9.3 0.85,-20.3 0.85,-29.6 -0.85,-10.15 -8.46,-17.76 -17.76,-18.61 -40.6,-1.69 -92.18,0 -127.7,0 -10.99,0 -19.45,-8.45 -19.45,-18.74 0.85,-38.34 2.54,-97.11 2.54,-133.48 0,-10.14 8.45,-18.6 18.6,-18.6 27.91,0 65.96,-0.85 91.33,-0.85 9.31,0 16.92,6.77 18.61,15.23l1.69 15.22c0,10.15 8.46,17.76 18.6,17.76 9.31,0 18.61,-0.85 27.07,-0.85z"/>
  <path class="fil1" d="M6779.81 911.75c-10.14,0 -16.91,6.77 -16.91,14.38l-1.69 32.84c0,8.45 6.76,16.91 15.22,16.91 25.37,0.85 25.37,0.85 126.01,-1.69 9.3,0 16.06,-7.61 15.22,-16.07l-1.69 -31.99c0,-7.61 -6.77,-14.38 -14.38,-14.38 -13.53,-0.84 -20.3,-7.61 -20.3,-15.93l0 -149.26c0,-6.62 5.92,-12.54 12.69,-12.54 16.07,0 44.82,-0.85 60.89,0.85 38.05,0 78.65,43.83 80.34,98.52 0,59.9 2.53,112.89 20.29,131.5 20.3,19.45 66.81,19.45 112.48,14.37 9.3,-1.69 16.06,-9.3 16.91,-17.76 1.69,-10.14 4.23,-16.91 5.07,-31.14 0.85,-10.15 -5.07,-19.45 -14.37,-21.99 -9.3,-3.38 -18.61,-6.77 -35.52,-17.62 -26.22,-16.91 4.23,-153.35 -75.26,-180.41 -2.54,-0.84 -2.54,-5.07 0,-5.92 76.95,-23.68 98.09,-70.89 94.71,-161.1 -1.69,-90.91 -66.81,-159.41 -135.31,-162.79 -46.51,-3.38 -197.88,0 -248.62,1.69 -9.31,0 -16.92,7.61 -16.92,16.91l-0.84 36.37c0,9.3 7.61,17.76 17.76,17.76l4.22 0c9.31,0 17.76,7.47 17.76,17.62 -0.84,60.74 -0.84,263.14 -1.69,367.58 0,10.99 -0.84,40.45 -1.69,58.21 0,8.32 -6.76,14.24 -14.38,15.08zm191.13 -253.84c-19.45,0 -53.28,0.85 -74.42,1.69 -10.15,0 -18.61,-7.47 -18.61,-17.62l0.85 -170.26c0,-9.3 8.45,-16.77 17.76,-16.77 27.9,-0.85 78.64,0 89.64,1.69 63.42,12.54 80.34,29.46 82.87,94.29 3.39,80.06 -55.81,106.98 -98.09,106.98z"/>
  <path class="fil1" d="M7426.98 860.45c-13.53,-0.84 -21.14,-8.45 -21.14,-17.75l-0.85 -169.14 0 -254.55c0,-8.45 6.77,-16.06 15.22,-16.91l11 -0.84c9.3,-0.85 16.06,-8.46 16.06,-16.92l0 -34.67c0,-9.3 -7.61,-16.91 -16.91,-16.91 -137.84,0.84 -137.84,-1.69 -142.07,-0.85 -8.46,0.85 -15.22,8.46 -15.22,17.76l0.84 34.67c0.85,9.3 7.61,16.07 16.07,16.07l8.46 0.85c9.3,0 16.06,7.61 16.06,16.91l0.85 422.83c0,9.31 -6.77,16.92 -15.22,17.76 -9.3,0.85 -16.07,8.46 -15.22,17.76l1.69 29.6c0.84,9.3 7.61,16.07 16.91,16.07l120.09 1.69c9.3,0 16.91,-6.77 17.76,-16.07l1.69 -29.6c0.84,-9.3 -6.77,-16.91 -16.07,-17.76z"/>
  <path class="fil1" d="M7992.18 763.9l-5.08 0c-7.61,-0.84 -13.53,-5.07 -16.07,-11.84 -23.68,-65.11 -115.01,-367.86 -153.91,-498.1 -4.23,-14.37 -17.76,-24.52 -32.98,-25.37l-11.84 0c-15.22,-0.84 -28.75,9.31 -33.83,23.68 -55.81,172.52 -142.07,439.75 -165.75,498.95 -2.53,6.76 -8.45,11.84 -16.06,11.84l-5.92 0c-12.69,0.84 -21.99,10.99 -22.84,22.83l-0.84 18.61c0,13.53 10.99,24.52 24.52,24.52l138.69 0c10.99,0 20.3,-9.3 20.3,-20.3l0.84 -23.67c0,-11 -8.45,-20.3 -19.45,-20.3l-14.37 -0.85c-5.08,0 -12.69,-5.92 -11,-10.99 3.38,-10.15 9.3,-23.68 11.84,-32.98 7.61,-28.75 13.53,-49.9 22.83,-77.8 1.7,-6.77 8.46,-11 15.23,-11 29.6,0 74.42,1.69 106.55,0.85 10.15,-0.85 16.91,2.54 18.61,9.3 11.84,34.67 22.83,89.64 31.29,112.48 1.69,5.07 -1.7,9.3 -6.77,10.14l-11.84 0c-9.3,0 -16.07,7.61 -16.07,16.07l0 32.98c0,9.3 7.61,16.07 16.07,16.07l137 0c9.3,0 16.91,-6.77 16.91,-15.22l0 -32.98c0,-9.31 -6.76,-16.92 -16.06,-16.92zm-180.13 -197.88c-20.3,0 -55.82,-0.85 -76.11,-0.85 -6.77,0 -11.84,-6.76 -10.15,-13.53 10.99,-45.67 38.9,-141.23 43.97,-158.14 0,-1.69 1.7,-3.38 3.39,-3.38l5.92 0c1.69,0 3.38,1.69 3.38,2.53 3.38,15.23 30.44,112.48 40.59,159.84 1.69,6.76 -3.38,13.53 -10.99,13.53z"/>
 </g>
</svg>
